<?xml version="1.0" encoding="UTF-8" standalone="no"?>
<svg width="497px" height="90px" viewBox="0 0 497 90" version="1.1" xmlns="http://www.w3.org/2000/svg" xmlns:xlink="http://www.w3.org/1999/xlink">
    <!-- Generator: Sketch 3.8.3 (29802) - http://www.bohemiancoding.com/sketch -->
    <title>Logo_KUZ</title>
    <desc>Created with Sketch.</desc>
    <defs></defs>
    <g id="Page-1" stroke="none" stroke-width="1" fill="none" fill-rule="evenodd">
        <g id="Logo_KUZ" fill="#FFFFFF">
            <path d="M221.868662,26.5873239 L229.132746,26.5873239 L229.136268,28.3338028 C229.129225,30.4147887 229.675,31.7140845 230.752465,32.2211268 C231.833451,32.7316901 234.062324,32.9852113 237.435563,32.9816901 C240.815845,32.9816901 242.953169,32.6260563 243.854577,31.9007042 C244.748944,31.1788732 245.20669,29.7387324 245.203169,27.5697183 C245.20669,25.4042254 244.794718,24.0521127 243.974296,23.5098592 C243.615141,23.2774648 243.322887,23.1014085 243.094014,22.9711268 C242.551761,22.6894366 240.516549,22.5169014 236.995423,22.4535211 C233.45669,22.3866197 230.653873,22.0802817 228.57993,21.5380282 C224.203169,20.4605634 222.030634,17.1577465 222.069366,11.6471831 C222.083451,7.01690141 223.199648,4.01690141 225.403873,2.64014085 C226.20669,2.12957746 226.974296,1.73521127 227.696127,1.45704225 C229.308803,0.833802817 232.474296,0.523943662 237.189085,0.520422535 C241.907394,0.520422535 245.097535,0.84084507 246.752465,1.48521127 C248.410915,2.12253521 249.601056,3.07323944 250.322887,4.33732394 C251.241901,5.97464789 251.703169,8.0943662 251.703169,10.6859155 L251.699648,11.9147887 L244.446127,11.9147887 L244.442606,10.6859155 C244.439085,8.76690141 244.016549,7.57676056 243.160915,7.11901408 C242.294718,6.66126761 240.27007,6.43591549 237.090493,6.45352113 C233.914437,6.45352113 231.833451,6.74225352 230.851056,7.31267606 C229.868662,7.89014085 229.368662,9.24225352 229.358099,11.3760563 C229.354577,13.5098592 229.787676,14.8302817 230.653873,15.3373239 C231.527113,15.8478873 233.326408,16.1859155 236.062324,16.3478873 C242.189085,16.7070423 246.058803,17.1753521 247.664437,17.7492958 C249.273592,18.3091549 250.333451,19.0133803 250.840493,19.8690141 C251.692606,21.3267606 252.178521,22.6295775 252.291197,23.7809859 C252.403873,24.9464789 252.463732,26.3619718 252.463732,28.034507 C252.463732,29.7105634 252.245423,31.2528169 251.801761,32.6647887 C251.358099,34.0767606 250.791197,35.1929577 250.101056,36.0098592 C249.39331,36.8338028 248.368662,37.4746479 247.027113,37.9323944 C244.95669,38.5873239 242.365141,38.9147887 239.248944,38.9147887 L237.132746,38.9147887 C232.650352,38.9147887 229.963732,38.7739437 229.07993,38.4957746 C228.196127,38.2176056 227.326408,37.9147887 226.470775,37.5873239 C225.622183,37.256338 224.963732,36.8443662 224.502465,36.3338028 C223.192606,34.8408451 222.428521,33.4640845 222.217254,32.1964789 C221.984859,30.95 221.872183,29.6647887 221.872183,28.3338028 L221.868662,26.5873239 Z" id="Fill-11"></path>
            <path d="M44.4302817,13.1869718 C26.6591549,13.1834507 12.2014085,27.6447183 12.2014085,45.4193662 C12.1978873,63.1975352 26.6591549,77.6552817 44.4338028,77.6552817 C62.2084507,77.6517606 76.6661972,63.1940141 76.6661972,45.4193662 C76.6661972,27.6482394 62.2049296,13.1869718 44.4302817,13.1869718 M44.4302817,89.8524648 C19.9338028,89.8524648 0.000704225352,69.9158451 0.000704225352,45.4193662 C-0.00281690141,20.9228873 19.9302817,0.989788732 44.4338028,0.989788732 C68.9338028,0.986267606 88.8669014,20.9228873 88.8669014,45.4228873 C88.8669014,69.9158451 68.9338028,89.8489437 44.4302817,89.8524648" id="Fill-1"></path>
            <polygon id="Fill-3" points="29.1887324 25.6242958 71.7485915 45.3566901 29.1394366 65.2123239"></polygon>
            <polygon id="Fill-5" points="115.031338 0.816549296 115.031338 16.2461268 118.404577 16.2496479 131.003169 0.816549296 139.939789 0.816549296 124.605282 19.2778169 141.492606 38.6228873 132.334155 38.6193662 118.404577 22.4503521 115.031338 22.4503521 115.031338 38.6228873 107.774296 38.6228873 107.770775 0.820070423"></polygon>
            <path d="M167.95,0.816549296 L175.207042,0.816549296 L175.210563,27.6933099 C175.210563,31.5806338 174.259859,34.418662 172.35493,36.2073944 C171.534507,36.9644366 170.376056,37.5524648 168.883099,37.9820423 C167.393662,38.4080986 165.978169,38.668662 164.650704,38.7672535 C163.305634,38.8658451 161.73169,38.9151408 159.925352,38.9151408 C154.640141,38.9151408 151.080282,38.5278169 149.242254,37.7637324 C147.404225,36.9890845 146.04507,35.8376761 145.154225,34.3165493 C144.256338,32.7848592 143.788028,30.5841549 143.752817,27.6933099 L143.752817,0.816549296 L151.01338,0.816549296 L151.01338,27.6897887 C151.009859,29.6616197 151.566197,30.9961268 152.664789,31.6792254 C153.759859,32.3693662 156.016901,32.7144366 159.432394,32.7144366 C162.840845,32.7144366 165.115493,32.3728873 166.252817,31.7073944 C167.397183,31.031338 167.964085,29.696831 167.946479,27.6933099 L167.95,0.816549296 Z" id="Fill-7"></path>
            <path d="M190.639437,38.6721831 L183.382394,38.668662 L183.375352,12.0947183 C183.375352,8.51725352 184.069014,5.99612676 185.449296,4.54190141 C186.195775,3.73908451 186.966901,3.09471831 187.773239,2.60176056 C189.093662,1.8165493 191.392958,1.31302817 194.685211,1.08767606 C195.822535,1.02077465 197.209859,0.989084507 198.847183,0.98556338 C200.484507,0.989084507 201.790845,1.00669014 202.752113,1.04190141 C205.456338,1.14049296 207.505634,1.47147887 208.914085,2.04190141 C210.910563,2.8306338 212.361268,3.99612676 213.262676,5.55598592 C214.160563,7.12288732 214.611268,9.30246479 214.614789,12.1017606 L214.614789,38.6721831 L207.452817,38.6721831 L207.449296,12.0172535 C207.452817,10.0278169 206.910563,8.70035211 205.822535,8.0278169 C204.748592,7.35528169 202.519718,7.02077465 199.142958,7.02077465 C195.766197,7.02077465 193.498592,7.34471831 192.33662,8.00316901 C191.188732,8.66161972 190.621831,9.99612676 190.642958,12.0172535 L190.639437,38.6721831 Z" id="Fill-9"></path>
            <path d="M472.965845,38.6704225 L465.701761,38.6739437 L465.698239,12.1 C465.698239,8.51901408 466.391901,5.9943662 467.779225,4.54014085 C468.518662,3.74084507 469.289789,3.09295775 470.099648,2.60352113 C471.413028,1.81830986 473.722887,1.31478873 477.01162,1.08943662 C478.145423,1.02253521 479.536268,0.99084507 481.17007,0.99084507 C482.810915,0.987323944 484.120775,1.0084507 485.078521,1.04014085 C487.782746,1.13521127 489.839085,1.47323944 491.236972,2.04366197 C493.22993,2.82887324 494.691197,3.99788732 495.585563,5.55070423 C496.486972,7.12464789 496.941197,9.30774648 496.937676,12.1 L496.937676,38.6739437 L489.779225,38.6704225 L489.772183,12.015493 C489.775704,10.0330986 489.233451,8.70211268 488.148944,8.02605634 C487.071479,7.35704225 484.842606,7.01901408 481.469366,7.01901408 C478.092606,7.01549296 475.825,7.35 474.659507,8.00492958 C473.515141,8.66338028 472.951761,9.9943662 472.962324,12.015493 L472.965845,38.6704225 Z" id="Fill-28"></path>
            <polygon id="Fill-14" points="272.622535 7.01830986 272.622535 38.6204225 265.361972 38.6239437 265.361972 7.02183099 254.259859 7.02183099 254.26338 0.817605634 283.696479 0.817605634 283.696479 7.02183099"></polygon>
            <path d="M311.263732,0.816549296 L318.524296,0.816549296 L318.527817,27.6933099 C318.520775,31.5841549 317.573592,34.418662 315.672183,36.2073944 C314.844718,36.9609155 313.69331,37.5559859 312.200352,37.9820423 C310.703873,38.4080986 309.291901,38.668662 307.967958,38.7707746 C306.619366,38.8693662 305.045423,38.9151408 303.239085,38.9151408 C297.953873,38.9151408 294.397535,38.531338 292.559507,37.7602113 C290.721479,36.9890845 289.355282,35.8411972 288.475,34.3130282 C287.57007,32.7883803 287.098239,30.5841549 287.07007,27.6933099 L287.066549,0.816549296 L294.330634,0.816549296 L294.330634,27.6933099 C294.330634,29.6616197 294.87993,30.9926056 295.978521,31.6827465 C297.080634,32.3658451 299.334155,32.7144366 302.749648,32.7144366 C306.158099,32.7144366 308.432746,32.3764085 309.563028,31.7073944 C310.714437,31.0348592 311.277817,29.696831 311.263732,27.6897887 L311.263732,0.816549296 Z" id="Fill-16"></path>
            <polygon id="Fill-18" points="332.380282 0.816549296 332.380282 38.6193662 325.123239 38.6193662 325.116197 0.816549296"></polygon>
            <polygon id="Fill-20" points="354.211972 7.01830986 354.211972 38.6204225 346.951408 38.6239437 346.951408 7.01830986 335.849296 7.01830986 335.852817 0.817605634 365.285915 0.817605634 365.289437 7.01830986"></polygon>
            <polygon id="Fill-22" points="375.964437 0.816549296 375.967958 32.418662 393.619366 32.418662 393.619366 38.6193662 368.700352 38.6228873 368.707394 0.816549296"></polygon>
            <path d="M417.810563,11.6207746 C417.828169,9.53626761 417.342254,8.2193662 416.36338,7.67359155 C415.373944,7.11725352 413.321127,6.83556338 410.201408,6.82147887 C407.088732,6.80739437 405.095775,7.00457746 404.222535,7.42711268 C403.373944,7.84612676 402.930282,9.01161972 402.891549,10.9165493 L402.888028,16.4693662 L409.588732,16.5221831 C413.345775,16.3285211 415.659155,15.9799296 416.532394,15.4764085 C417.377465,14.9764085 417.810563,13.6911972 417.810563,11.6207746 L417.810563,11.6207746 Z M402.849296,27.3602113 C402.849296,28.6383803 402.877465,29.546831 402.940845,30.0855634 C403.025352,30.6419014 403.285915,31.1665493 403.711972,31.659507 C404.134507,32.1524648 404.782394,32.4552817 405.655634,32.5926056 C406.525352,32.7228873 407.789437,32.7897887 409.451408,32.7897887 L422.969014,32.7369718 L422.976056,38.6700704 L409.451408,38.7193662 C407.366901,38.7158451 405.697887,38.6630282 404.451408,38.5503521 C401.250704,38.2545775 399.078169,37.4411972 397.926761,36.1102113 C396.461972,34.3707746 395.715493,31.796831 395.680282,28.381338 L395.683803,28.2862676 L395.729577,10.8602113 C395.733099,6.82147887 396.775352,4.13485915 398.859859,2.78626761 C399.595775,2.30739437 400.282394,1.94823944 400.930282,1.70176056 C401.564085,1.47288732 402.500704,1.27570423 403.733099,1.11021127 C404.961972,0.951760563 406.630986,0.867253521 408.757746,0.867253521 C410.856338,0.867253521 412.877465,0.902464789 414.814085,0.969366197 C416.754225,1.03626761 418.194366,1.26514085 419.134507,1.65598592 C421.409155,2.57852113 422.888028,3.64894366 423.542958,4.88133803 C424.483099,6.53978873 424.95493,8.54683099 424.976056,10.9130282 C424.98662,13.2580986 424.761268,15.1102113 424.278873,16.4728873 C423.810563,17.8320423 423.219014,18.8778169 422.504225,19.5961268 C421.8,20.3003521 420.856338,20.8496479 419.673239,21.2440141 C418.490141,21.6383803 417.307042,21.8954225 416.123944,22.0045775 C414.961972,22.1207746 413.817606,22.2052817 412.669718,22.2510563 C411.51831,22.3038732 410.792958,22.3496479 410.500704,22.3989437 L402.849296,22.4024648 L402.849296,27.3602113 Z" id="Fill-24"></path>
            <path d="M451.304225,11.6207746 C451.325352,9.53274648 450.839437,8.22288732 449.857042,7.6665493 C448.864085,7.12429577 446.81831,6.83908451 443.702113,6.82147887 C440.582394,6.80739437 438.592958,7.00809859 437.723239,7.4306338 C436.871127,7.84964789 436.427465,9.01161972 436.392254,10.9200704 L436.388732,16.4693662 L443.092958,16.518662 C446.842958,16.3285211 449.156338,15.9764085 450.029577,15.4764085 C450.878169,14.9728873 451.307746,13.6911972 451.304225,11.6207746 L451.304225,11.6207746 Z M436.346479,27.3602113 C436.346479,28.6383803 436.374648,29.546831 436.434507,30.0890845 C436.522535,30.6419014 436.779577,31.1700704 437.205634,31.659507 C437.63169,32.1489437 438.279577,32.4623239 439.149296,32.5926056 C440.019014,32.7228873 441.28662,32.7862676 442.948592,32.7862676 L456.462676,32.740493 L456.462676,38.6700704 L442.94507,38.7193662 C440.860563,38.7193662 439.19507,38.6630282 437.94507,38.5433099 C434.747887,38.2510563 432.571831,37.4411972 431.420423,36.1102113 C429.962676,34.3707746 429.219718,31.7933099 429.180986,28.381338 L429.180986,28.2792254 L429.226761,10.8602113 C429.226761,6.82147887 430.265493,4.13485915 432.353521,2.78626761 C433.096479,2.30739437 433.783099,1.94471831 434.423944,1.70528169 C435.057746,1.47640845 435.997887,1.27922535 437.230282,1.11021127 C438.459155,0.948239437 440.124648,0.867253521 442.251408,0.863732394 C444.353521,0.867253521 446.374648,0.898943662 448.314789,0.96584507 C450.251408,1.03626761 451.684507,1.26161972 452.628169,1.65598592 C454.916901,2.575 456.385211,3.64894366 457.040141,4.88133803 C457.973239,6.53978873 458.455634,8.54683099 458.469718,10.909507 C458.487324,13.2545775 458.25493,15.1102113 457.776056,16.4693662 C457.297183,17.8320423 456.705634,18.8742958 456.00493,19.5961268 C455.297183,20.3038732 454.353521,20.853169 453.16338,21.2440141 C451.983803,21.6383803 450.804225,21.8919014 449.617606,22.0045775 C448.466197,22.1207746 447.31831,22.2017606 446.166901,22.2545775 C445.008451,22.3038732 444.293662,22.353169 443.997887,22.4024648 L436.346479,22.4024648 L436.346479,27.3602113 Z" id="Fill-26"></path>
            <polygon id="Fill-31" points="135.606338 51.7559859 135.606338 57.9566901 114.690845 83.2066901 114.690845 83.3545775 135.852817 83.3545775 135.852817 89.5552817 105.70493 89.5552817 105.70493 83.4038732 126.479577 58.1538732 126.476056 57.9566901 106.61338 57.9566901 106.61338 51.7524648"></polygon>
            <polygon id="Fill-33" points="177.945775 83.6028169 186.111268 51.7507042 192.917606 51.7542254 183.230986 89.5570423 172.748592 89.5570423 165.188732 60.7366197 164.949296 60.7260563 157.11831 89.5570423 146.266197 89.5570423 136.956338 51.7507042 144.234507 51.7577465 152.072535 83.5992958 152.259155 83.5957746 160.956338 51.7542254 169.195775 51.7542254 177.678169 83.6274648"></polygon>
            <path d="M210.724296,57.6602113 C208.984859,57.6602113 207.555282,57.7552817 206.435563,57.9559859 C205.32993,58.1496479 204.463732,58.5792254 203.854577,59.2341549 C203.234859,59.8926056 202.840493,60.6461268 202.675,61.4982394 C202.509507,62.3538732 202.414437,63.6073944 202.379225,65.2658451 L202.379225,75.4559859 C202.379225,77.403169 202.481338,78.8926056 202.678521,79.9102113 C202.872183,80.9242958 203.32993,81.7411972 204.051761,82.346831 C204.791197,82.9524648 205.653873,83.3221831 206.636268,83.4559859 C207.625704,83.5862676 209.062324,83.6496479 210.967254,83.653169 C212.872183,83.6496479 214.315845,83.568662 215.301761,83.4066901 C217.597535,83.0264085 219.005986,81.8362676 219.534155,79.8362676 C219.812324,78.7552817 219.963732,77.2940141 219.974296,75.4524648 L219.974296,65.2658451 C220.041197,62.6742958 219.646831,60.7552817 218.794718,59.5088028 C218.108099,58.5052817 216.696127,57.9207746 214.562324,57.7552817 C213.741901,57.6919014 212.460211,57.6602113 210.724296,57.6602113 M210.921479,51.459507 C214.002465,51.459507 216.45669,51.6073944 218.287676,51.8996479 C220.094014,52.1989437 221.727817,52.818662 223.196127,53.7693662 C224.657394,54.7271127 225.699648,56.1320423 226.322887,58.0052817 C226.946127,59.8609155 227.255986,62.2764085 227.23838,65.2693662 L227.234859,75.4559859 C227.234859,78.4735915 226.95669,80.9242958 226.400352,82.8151408 C225.840493,84.6989437 224.851056,86.1602113 223.446127,87.1989437 C222.041197,88.2306338 220.400352,88.9348592 218.505986,89.3116197 C216.615141,89.6707746 214.129225,89.8538732 211.041197,89.8503521 C207.960211,89.8538732 205.477817,89.6919014 203.61162,89.3644366 C199.48838,88.6390845 196.932042,86.4947183 195.928521,82.9383803 C195.389789,81.068662 195.118662,78.5721831 195.122183,75.4559859 L195.118662,65.2623239 C195.118662,62.3116197 195.375704,59.9419014 195.879225,58.153169 C196.847535,54.7411972 199.382746,52.6707746 203.48838,51.9524648 C205.36162,51.625 207.833451,51.4559859 210.921479,51.459507" id="Fill-35"></path>
            <polygon id="Fill-37" points="239.665141 51.7528169 239.665141 83.3549296 257.313028 83.3549296 257.313028 89.5591549 232.408099 89.5556338 232.404577 51.7528169"></polygon>
            <polygon id="Fill-39" points="268.094014 51.7542254 268.090493 83.3528169 285.741901 83.356338 285.741901 89.5570423 260.833451 89.5570423 260.833451 51.7577465"></polygon>
            <path d="M309.934859,62.5584507 C309.952465,60.4739437 309.466549,59.1605634 308.480634,58.6042254 C307.498239,58.0584507 305.448944,57.7732394 302.332746,57.7556338 C299.209507,57.7415493 297.22007,57.9422535 296.350352,58.3647887 C295.494718,58.7838028 295.051056,59.9528169 295.019366,61.8542254 L295.019366,67.4070423 L301.713028,67.456338 C305.47007,67.2591549 307.786972,66.9140845 308.65669,66.4140845 C309.508803,65.9140845 309.934859,64.6253521 309.934859,62.5584507 L309.934859,62.5584507 Z M294.973592,78.2943662 C294.97007,79.5725352 295.001761,80.4809859 295.072183,81.0267606 C295.149648,81.5795775 295.40669,82.1077465 295.836268,82.5971831 C296.258803,83.0866197 296.90669,83.3964789 297.783451,83.5302817 C298.649648,83.6605634 299.910211,83.7204225 301.568662,83.7239437 L315.100352,83.6746479 L315.100352,89.6077465 L301.575704,89.6535211 C299.491197,89.6570423 297.822183,89.5971831 296.575704,89.4809859 C293.367958,89.1887324 291.198944,88.3753521 290.054577,87.0478873 C288.586268,85.3119718 287.839789,82.734507 287.804577,79.3190141 L287.804577,79.2204225 L287.857394,61.7978873 C287.857394,57.7556338 288.899648,55.0690141 290.984155,53.7239437 C291.72007,53.2450704 292.410211,52.8823944 293.051056,52.6394366 C293.691901,52.4105634 294.625,52.2133803 295.853873,52.0514085 C297.086268,51.8823944 298.758803,51.8014085 300.875,51.8014085 C302.980634,51.8049296 305.001761,51.8366197 306.941901,51.9035211 C308.878521,51.9739437 310.315141,52.2028169 311.251761,52.593662 C313.536972,53.5126761 315.008803,54.5901408 315.667254,55.8190141 C316.600352,57.4739437 317.079225,59.484507 317.096831,61.8471831 C317.117958,64.1887324 316.882042,66.0478873 316.40669,67.4070423 C315.931338,68.7697183 315.339789,69.8119718 314.628521,70.5338028 C313.920775,71.2380282 312.980634,71.7908451 311.797535,72.178169 C310.610915,72.5725352 309.427817,72.8260563 308.244718,72.9422535 C307.096831,73.0549296 305.941901,73.1394366 304.794014,73.1922535 C303.646127,73.2415493 302.917254,73.2873239 302.621479,73.3366197 L294.97007,73.3366197 L294.973592,78.2943662 Z" id="Fill-41"></path>
        </g>
    </g>
</svg>